HIERARCHY
ROOT Hips
{
    OFFSET 0.000000 0.000000 0.000000
    CHANNELS 6 Xposition Yposition Zposition Zrotation Xrotation Yrotation
    JOINT Spine
    {
        OFFSET -0.000000 7.236184 0.000000
        CHANNELS 3 Zrotation Xrotation Yrotation
        JOINT Spine1
        {
            OFFSET -0.000000 20.420147 0.000000
            CHANNELS 3 Zrotation Xrotation Yrotation
            JOINT Neck
            {
                OFFSET -0.000000 20.336288 1.848754
                CHANNELS 3 Zrotation Xrotation Yrotation
                JOINT Head
                {
                    OFFSET -0.000000 12.354461 -1.764923
                    CHANNELS 3 Zrotation Xrotation Yrotation
                    End Site
                    {
                        OFFSET -0.000000 22.061537 0.000000
                    }
                }
            }
            JOINT LeftShoulder
            {
                OFFSET 3.573296 18.396038 -0.314103
                CHANNELS 3 Zrotation Xrotation Yrotation
                JOINT LeftArm
                {
                    OFFSET 10.880760 0.000000 0.000000
                    CHANNELS 3 Zrotation Xrotation Yrotation
                    JOINT LeftForeArm
                    {
                        OFFSET 27.185530 0.000000 0.000000
                        CHANNELS 3 Zrotation Xrotation Yrotation
                        JOINT LeftHand
                        {
                            OFFSET 27.825975 0.000000 0.000000
                            CHANNELS 3 Zrotation Xrotation Yrotation
                            End Site
                            {
                                OFFSET 13.236923 0.000000 0.000000
                            }
                        }
                    }
                }
            }
            JOINT RightShoulder
            {
                OFFSET -3.474926 18.396038 -0.314103
                CHANNELS 3 Zrotation Xrotation Yrotation
                JOINT RightArm
                {
                    OFFSET -10.880760 0.000000 0.000000
                    CHANNELS 3 Zrotation Xrotation Yrotation
                    JOINT RightForeArm
                    {
                        OFFSET -27.185530 0.000000 0.000000
                        CHANNELS 3 Zrotation Xrotation Yrotation
                        JOINT RightHand
                        {
                            OFFSET -27.825975 0.000000 0.000000
                            CHANNELS 3 Zrotation Xrotation Yrotation
                            End Site
                            {
                                OFFSET -13.236923 0.000000 0.000000
                            }
                        }
                    }
                }
            }
        }
    }
    JOINT LeftUpLeg
    {
        OFFSET 8.824615 0.000000 0.000000
        CHANNELS 3 Zrotation Xrotation Yrotation
        JOINT LeftLeg
        {
            OFFSET -0.000000 -35.111282 0.000000
            CHANNELS 3 Zrotation Xrotation Yrotation
            JOINT LeftFoot
            {
                OFFSET -0.000000 -42.324711 0.000000
                CHANNELS 3 Zrotation Xrotation Yrotation
                JOINT LeftToeBase
                {
                    OFFSET -0.000000 -5.735999 13.236923
                    CHANNELS 3 Zrotation Xrotation Yrotation
                    End Site
                    {
                        OFFSET -0.000000 0.000000 3.529846
                    }
                }
            }
        }
    }
    JOINT RightUpLeg
    {
        OFFSET -8.824615 0.000000 0.000000
        CHANNELS 3 Zrotation Xrotation Yrotation
        JOINT RightLeg
        {
            OFFSET -0.000000 -35.111282 0.000000
            CHANNELS 3 Zrotation Xrotation Yrotation
            JOINT RightFoot
            {
                OFFSET -0.000000 -42.324711 0.000000
                CHANNELS 3 Zrotation Xrotation Yrotation
                JOINT RightToeBase
                {
                    OFFSET -0.000000 -5.735999 13.236923
                    CHANNELS 3 Zrotation Xrotation Yrotation
                    End Site
                    {
                        OFFSET -0.000000 0.000000 3.529846
                    }
                }
            }
        }
    }
}
MOTION
Frames:    4
Frame Time:    0.008333
-0.677015    80.092400    104.765556    6.207085    -16.201241    -168.255356    -0.046126    -4.443910    3.455305    7.377378    -1.602171    3.560418    2.914459    3.394160    -8.016470    4.842309    -18.370834    -7.244557    1.089082    17.008522    4.414385    -69.047112    40.681984    -13.795277    0.182952    -4.597855    -10.724262    23.571245    -4.317191    1.267068    6.361506    15.642924    -9.620297    51.624809    33.553997    27.236677    -11.913820    -12.286809    51.452568    -18.544373    -6.473964    -0.786251    15.977695    -34.384430    4.857838    3.207474    34.876633    0.989601    -11.481971    -11.148500    -17.051325    -0.252544    -0.560135    0.280220    -28.966578    -17.918961    -4.945550    4.588871    52.011959    2.146182    15.621924    0.560647    -11.106683    1.651567    -14.257825    -1.826817
-1.007626    80.238518    104.757645    6.273748    -16.059309    -168.173798    0.005419    -4.401854    3.407457    7.435774    -1.750170    3.520993    2.979026    3.494809    -8.128669    4.818254    -18.247444    -7.378500    1.174289    16.836111    4.465333    -68.793526    40.380337    -13.773732    0.271891    -4.634013    -10.725951    23.733845    -4.352299    1.223381    6.339212    15.674206    -9.679626    51.692245    33.702671    27.111599    -12.056524    -12.109007    51.472466    -18.084129    -6.219291    -0.819491    15.660985    -34.097759    4.691453    3.255558    34.610271    0.835160    -11.121492    -11.264565    -16.834787    -0.249693    -0.453100    0.277003    -29.266468    -17.959848    -4.915972    4.725128    55.840664    2.613097    15.300991    0.706037    -11.174135    1.624094    -14.777285    -1.798138
-1.318915    80.368538    104.752907    6.333214    -15.919127    -168.093826    0.056148    -4.362837    3.363576    7.487861    -1.891743    3.485261    3.042671    3.602410    -8.240406    4.783621    -18.135366    -7.514158    1.259476    16.667021    4.520300    -68.553513    40.058300    -13.714404    0.341765    -4.648450    -10.706974    23.855413    -4.369247    1.174324    6.314516    15.699033    -9.740563    51.754616    33.826756    26.987461    -12.218559    -11.934256    51.507370    -17.647303    -5.955953    -0.855218    15.350399    -33.834332    4.524469    3.321034    34.380367    0.656045    -10.778797    -11.393588    -16.608343    -0.243996    -0.349232    0.270631    -29.580605    -17.981010    -4.888805    4.907779    59.819725    3.052803    14.986749    0.821797    -11.228792    1.558917    -15.186922    -1.727284
-1.614709    80.482536    104.751877    6.387647    -15.782949    -168.017960    0.106745    -4.329071    3.324751    7.536543    -2.027014    3.454236    3.104803    3.715169    -8.351549    4.739504    -18.035318    -7.651005    1.343968    16.500683    4.578443    -68.321434    39.718300    -13.625114    0.393582    -4.642838    -10.667357    23.938791    -4.369505    1.120092    6.287116    15.717669    -9.803020    51.815300    33.922119    26.861036    -12.397745    -11.762257    51.557587    -17.236168    -5.684664    -0.892666    15.046473    -33.597111    4.354541    3.400590    34.190113    0.458178    -10.453144    -11.538999    -16.371918    -0.235071    -0.248001    0.260685    -29.911440    -17.980270    -4.849547    5.176352    63.958599    3.429465    14.665734    0.912401    -11.277417    1.445746    -15.471527    -1.602743
